<svg id="Layer_1" data-name="Layer 1" xmlns="http://www.w3.org/2000/svg" viewBox="0 0 156.22 156.22"><defs><style>.cls-1{fill:#fff;}.cls-2{fill:#fdead4;}.cls-3{fill:#ec681d;}.cls-4{fill:none;}.cls-5{fill:#4d2d14;}</style></defs><title>favicon</title><circle class="cls-1" cx="78.11" cy="78.11" r="78.11"/><path class="cls-2" d="M178.4,118.58a21.24,21.24,0,0,1-4.84.56,25.07,25.07,0,0,1-7.9-1.33,32.7,32.7,0,0,1-2.89,3.49c2.62,1.4,8.82,4.07,15.55,2.34a16.49,16.49,0,0,0,4.88-2.47A42.53,42.53,0,0,1,178.4,118.58Z" transform="translate(-70.21 -17.82)"/><path class="cls-2" d="M160.07,115.22a25.18,25.18,0,0,1-6.6,3.56l-.14,0a25.62,25.62,0,0,1-4.75.45h-.87a15.7,15.7,0,0,1-4.19-.59c-.47-.11-.93-.22-1.39-.31l-.14,0a25.11,25.11,0,0,1-6.22-2.87,27.27,27.27,0,0,1-2.82,1.43,15.63,15.63,0,0,0,3.25,3.4l.24,0,.31.21a22.25,22.25,0,0,0,6.16,3l1.44.33a13.22,13.22,0,0,0,3.45.51h.11a22.34,22.34,0,0,0,4.93-.38,25.15,25.15,0,0,0,6.12-3.43l.38-.26h.2a19.05,19.05,0,0,0,3.29-3.58A26.24,26.24,0,0,1,160.07,115.22Z" transform="translate(-70.21 -17.82)"/><path class="cls-2" d="M99.73,123a15.84,15.84,0,0,1-13.1-6.47,11.87,11.87,0,0,0,2.29,6l.06.08c7.18,9.57,19,4.43,23.77,1.75a25.47,25.47,0,0,1-4-3.1A26.8,26.8,0,0,1,99.73,123Z" transform="translate(-70.21 -17.82)"/><path class="cls-2" d="M122.68,119.14a21.59,21.59,0,0,1-5.35-.67,12.45,12.45,0,0,1-1.64-.57,37.73,37.73,0,0,1-3.91,2.1,18.07,18.07,0,0,0,6.41,3.63c6.29,1.62,12.1-.58,15-2a29.1,29.1,0,0,1-3.09-3.65A24.75,24.75,0,0,1,122.68,119.14Z" transform="translate(-70.21 -17.82)"/><path class="cls-2" d="M209,118a15.55,15.55,0,0,1-13,6.39,28.52,28.52,0,0,1-9.6-1.89,23.81,23.81,0,0,1-4.3,2.81c5.18,2.91,17.62,8.4,24.75-1.12L207,124a11.85,11.85,0,0,0,2.78-7C209.4,117.53,209.13,117.85,209,118Z" transform="translate(-70.21 -17.82)"/><path class="cls-3" d="M200.12,95.27c6.59,5.48,10.61,11,12,16.49l.06-.25C210.69,106.11,206.64,100.67,200.12,95.27Z" transform="translate(-70.21 -17.82)"/><path class="cls-4" d="M160.13,69.36l-3.36-.13a.5.5,0,0,0-.45.73l1.57,3a.5.5,0,0,0,.86,0l1.79-2.85A.5.5,0,0,0,160.13,69.36Z" transform="translate(-70.21 -17.82)"/><path class="cls-4" d="M139.66,71.59l.31-3a.58.58,0,0,0-.82-.59l-2.79,1.25a.58.58,0,0,0-.1,1L138.74,72A.58.58,0,0,0,139.66,71.59Z" transform="translate(-70.21 -17.82)"/><path class="cls-4" d="M146.11,77.35l2.57-1.67a.59.59,0,0,0-.06-1l-2.73-1.39a.59.59,0,0,0-.85.55l.17,3.06A.59.59,0,0,0,146.11,77.35Z" transform="translate(-70.21 -17.82)"/><path class="cls-4" d="M129.47,91.77l-7.21-.17a5.09,5.09,0,0,0-5.21,5l0,2a4.65,4.65,0,0,0,4.86,5l7.43.17A4.67,4.67,0,0,0,134.4,99l0-2A5.11,5.11,0,0,0,129.47,91.77Zm1.13,6.51a2,2,0,0,1-2,2.1l-5.8-.13a2,2,0,0,1-1.94-2.19l0-1.07A1.91,1.91,0,0,1,123,94.9l5.66.13a1.91,1.91,0,0,1,2,2.19Z" transform="translate(-70.21 -17.82)"/><path class="cls-4" d="M155.41,100.2c-2.71-1.1-5.37-3.29-5.32-5.69l0-.64a2,2,0,1,0-4.06-.09v.68c-.06,2.38-2.33,4.69-5.18,5.45-1.21.3-1.89,1.07-1.68,2.23a1.69,1.69,0,0,0,1.06,1.25,2,2,0,0,0,1.11.09A12.26,12.26,0,0,0,148,99.06c1.65,2,3.63,3.88,6,4.55a3.47,3.47,0,0,0,1.48.13,1.67,1.67,0,0,0,1.3-1.13C157.15,101.49,156.56,100.67,155.41,100.2Z" transform="translate(-70.21 -17.82)"/><path class="cls-4" d="M174.26,92.8,167,92.63a5.11,5.11,0,0,0-5.21,5l0,2a4.65,4.65,0,0,0,4.86,5l7.43.17a4.67,4.67,0,0,0,5.11-4.72l0-2A5.1,5.1,0,0,0,174.26,92.8Zm1.12,6.51a2,2,0,0,1-2,2.1l-5.8-.13a2,2,0,0,1-1.93-2.19l0-1.06a1.92,1.92,0,0,1,2.1-2.1l5.66.13a1.92,1.92,0,0,1,2,2.19Z" transform="translate(-70.21 -17.82)"/><path class="cls-3" d="M209.74,115.13c-.42-5.66-4.26-11.54-11.41-17.51a56,56,0,0,1-1.17,6.49,1.47,1.47,0,0,1-1.43,1.12,1.34,1.34,0,0,1-.35,0,1.47,1.47,0,0,1-1.08-1.79,54.08,54.08,0,0,0,1.35-8.61,10.69,10.69,0,0,0-1.11-5c-.33-.85-.71-1.81-1.07-3-.56-1.77-9.08-13-15.2-14.09h-4.81A39.13,39.13,0,0,1,176.22,86a1.48,1.48,0,0,1-2.95.09,36.32,36.32,0,0,0-3.09-13.6,1.47,1.47,0,0,1-.71-.89c-2.46-2.12-10.91-8.71-21.61-9.32-11.72.66-20.73,8.5-22.15,9.79a37.12,37.12,0,0,0-3.19,15.26,1.48,1.48,0,0,1-1.47,1.48h0a1.47,1.47,0,0,1-1.47-1.48,40.15,40.15,0,0,1,2.67-14.58c-11.81,1-18.74,12.64-19.17,14-.37,1.16-.75,2.12-1.08,3a10.73,10.73,0,0,0-1.11,5.07,51.5,51.5,0,0,0,1.9,10.57,1.48,1.48,0,0,1-1,1.83,1.52,1.52,0,0,1-.42.06,1.47,1.47,0,0,1-1.41-1A54.39,54.39,0,0,1,98,96c-7,5.94-10.83,11.85-11.41,17.6a14.16,14.16,0,0,0,0,3A15.84,15.84,0,0,0,99.73,123a26.8,26.8,0,0,0,9-1.76,28,28,0,0,1-2.91-3.2,1.48,1.48,0,0,1,2.33-1.82,24.34,24.34,0,0,0,3.61,3.77,37.73,37.73,0,0,0,3.91-2.1,12.45,12.45,0,0,0,1.64.57,21.59,21.59,0,0,0,5.35.67,24.75,24.75,0,0,0,7.41-1.18c-1.12-1.51-2.12-3.07-2.81-4.23a1.47,1.47,0,1,1,2.53-1.51,47.19,47.19,0,0,0,3.14,4.67,27.27,27.27,0,0,0,2.82-1.43,25.11,25.11,0,0,0,6.22,2.87l.14,0c.46.09.92.2,1.39.31a15.7,15.7,0,0,0,4.19.59h.87a25.62,25.62,0,0,0,4.75-.45l.14,0a25.18,25.18,0,0,0,6.6-3.56,26.24,26.24,0,0,0,2.76,1.47,51,51,0,0,0,3.58-5.42,1.48,1.48,0,0,1,2.56,1.47,57.61,57.61,0,0,1-3.31,5.07,25.07,25.07,0,0,0,7.9,1.33,21.24,21.24,0,0,0,4.84-.56,42.53,42.53,0,0,0,4.8,2.59,24.2,24.2,0,0,0,6-6,1.47,1.47,0,1,1,2.41,1.7,27.79,27.79,0,0,1-5.18,5.61,28.52,28.52,0,0,0,9.6,1.89A15.55,15.55,0,0,0,209,118c.13-.14.4-.46.74-.92A14,14,0,0,0,209.74,115.13ZM134.4,99a4.67,4.67,0,0,1-5.11,4.72l-7.43-.17a4.65,4.65,0,0,1-4.86-5l0-2a5.09,5.09,0,0,1,5.21-5l7.21.17a5.11,5.11,0,0,1,5,5.23Zm11.49-25.68,2.73,1.39a.59.59,0,0,1,.06,1l-2.57,1.67a.59.59,0,0,1-.9-.46L145,73.83A.59.59,0,0,1,145.89,73.28ZM138.74,72l-2.48-1.79a.58.58,0,0,1,.1-1L139.15,68a.58.58,0,0,1,.82.59l-.31,3A.58.58,0,0,1,138.74,72Zm18,30.6a1.67,1.67,0,0,1-1.3,1.13,3.47,3.47,0,0,1-1.48-.13c-2.35-.67-4.33-2.55-6-4.55a12.26,12.26,0,0,1-6.66,4.42,2,2,0,0,1-1.11-.09,1.69,1.69,0,0,1-1.06-1.25c-.21-1.16.47-1.93,1.68-2.23,2.85-.76,5.12-3.07,5.18-5.45v-.68a2,2,0,1,1,4.06.09l0,.64c-.05,2.4,2.61,4.59,5.32,5.69C156.56,100.67,157.15,101.49,156.77,102.61Zm3.77-32.49L158.75,73a.5.5,0,0,1-.86,0l-1.57-3a.5.5,0,0,1,.45-.73l3.36.13A.5.5,0,0,1,160.54,70.12ZM179.19,100a4.67,4.67,0,0,1-5.11,4.72l-7.43-.17a4.65,4.65,0,0,1-4.86-5l0-2a5.11,5.11,0,0,1,5.21-5l7.22.17a5.1,5.1,0,0,1,5,5.23Z" transform="translate(-70.21 -17.82)"/><path class="cls-3" d="M196.28,85.9c.33,1.06.68,1.93,1,2.77a14.39,14.39,0,0,1,1.32,5.39l.55.44-.39-.32a14.34,14.34,0,0,0-1.32-5.38c-.33-.85-.68-1.72-1-2.78-.6-1.9-5.35-8.35-10.63-12.52C191,77.67,195.69,84,196.28,85.9Z" transform="translate(-70.21 -17.82)"/><path class="cls-5" d="M179.19,100l0-2a5.1,5.1,0,0,0-5-5.23L167,92.63a5.11,5.11,0,0,0-5.21,5l0,2a4.65,4.65,0,0,0,4.86,5l7.43.17A4.67,4.67,0,0,0,179.19,100Zm-11.64,1.29a2,2,0,0,1-1.93-2.19l0-1.06a1.92,1.92,0,0,1,2.1-2.1l5.66.13a1.92,1.92,0,0,1,2,2.19l0,1.06a2,2,0,0,1-2,2.1Z" transform="translate(-70.21 -17.82)"/><path class="cls-5" d="M155.41,100.2c-2.71-1.1-5.37-3.29-5.32-5.69l0-.64a2,2,0,1,0-4.06-.09v.68c-.06,2.38-2.33,4.69-5.18,5.45-1.21.3-1.89,1.07-1.68,2.23a1.69,1.69,0,0,0,1.06,1.25,2,2,0,0,0,1.11.09A12.26,12.26,0,0,0,148,99.06c1.65,2,3.63,3.88,6,4.55a3.47,3.47,0,0,0,1.48.13,1.67,1.67,0,0,0,1.3-1.13C157.15,101.49,156.56,100.67,155.41,100.2Z" transform="translate(-70.21 -17.82)"/><path class="cls-5" d="M129.47,91.77l-7.21-.17a5.09,5.09,0,0,0-5.21,5l0,2a4.65,4.65,0,0,0,4.86,5l7.43.17A4.67,4.67,0,0,0,134.4,99l0-2A5.11,5.11,0,0,0,129.47,91.77Zm1.13,6.51a2,2,0,0,1-2,2.1l-5.8-.13a2,2,0,0,1-1.94-2.19l0-1.07A1.91,1.91,0,0,1,123,94.9l5.66.13a1.91,1.91,0,0,1,2,2.19Z" transform="translate(-70.21 -17.82)"/><path class="cls-5" d="M137,124.13l-.05,0Z" transform="translate(-70.21 -17.82)"/><path class="cls-5" d="M169.47,71.62a1.47,1.47,0,0,0,.71.89c-.06-.14-.11-.28-.17-.41Z" transform="translate(-70.21 -17.82)"/><path class="cls-5" d="M199.16,94.5c.33.26.65.51,1,.77C199.81,95,199.48,94.76,199.16,94.5Z" transform="translate(-70.21 -17.82)"/><path class="cls-5" d="M212.84,115.13a17.52,17.52,0,0,0-.64-3.62l-.06.25c-1.41-5.48-5.43-11-12-16.49-.31-.26-.63-.51-1-.77l-.55-.44a14.39,14.39,0,0,0-1.32-5.39c-.33-.84-.68-1.71-1-2.77-.59-1.88-5.25-8.23-10.47-12.4a16.79,16.79,0,0,0-7.17-3.74l-6.81,0c-.43-.38-1.09-.94-2-1.61-3.8-3-11.85-8.24-21.94-8.78h-.16C135.35,60,126,67.82,123.9,69.75h0c-13.69,0-22.57,12.87-23.61,16.16-.33,1.06-.67,1.93-1,2.77A20.68,20.68,0,0,0,98.15,92c-8,6.33-12.78,12.77-14.14,19.2,0,.12.07.25.11.38a17.42,17.42,0,0,0-.28,1.76,15.53,15.53,0,0,0,3,11.14,17.92,17.92,0,0,0,3,3.13A15.78,15.78,0,0,0,100,131.16c7.09,0,13.81-3.77,16-5.1a13.68,13.68,0,0,0,1.65.56,21.11,21.11,0,0,0,5.34.67,26.79,26.79,0,0,0,13.09-3.68c.28.18.56.33.84.49l.05,0a24.13,24.13,0,0,0,5.33,2.35l.15,0c.46.09.92.2,1.39.31a15.62,15.62,0,0,0,4.18.59l.87,0a25.56,25.56,0,0,0,4.75-.46l.14,0a25.36,25.36,0,0,0,6.6-3.57,26.86,26.86,0,0,0,13.49,3.92,21.17,21.17,0,0,0,4.84-.56c2,1.27,9.71,5.8,17.59,5.8a15.54,15.54,0,0,0,13-6.39A15.09,15.09,0,0,0,212.84,115.13Zm-3.1,1.94a11.85,11.85,0,0,1-2.78,7l-.13.14c-7.13,9.52-19.57,4-24.75,1.12a23.81,23.81,0,0,0,4.3-2.81,27.79,27.79,0,0,0,5.18-5.61,1.47,1.47,0,1,0-2.41-1.7,24.2,24.2,0,0,1-6,6,16.49,16.49,0,0,1-4.88,2.47c-6.73,1.73-12.93-.94-15.55-2.34a32.7,32.7,0,0,0,2.89-3.49,57.61,57.61,0,0,0,3.31-5.07,1.48,1.48,0,0,0-2.56-1.47,51,51,0,0,1-3.58,5.42,19.05,19.05,0,0,1-3.29,3.58h-.2l-.38.26a25.15,25.15,0,0,1-6.12,3.43,22.34,22.34,0,0,1-4.93.38h-.11a13.22,13.22,0,0,1-3.45-.51l-1.44-.33a22.25,22.25,0,0,1-6.16-3l-.31-.21-.24,0a15.63,15.63,0,0,1-3.25-3.4,47.19,47.19,0,0,1-3.14-4.67,1.47,1.47,0,1,0-2.53,1.51c.69,1.16,1.69,2.72,2.81,4.23a29.1,29.1,0,0,0,3.09,3.65c-2.89,1.44-8.7,3.64-15,2a18.07,18.07,0,0,1-6.41-3.63,24.34,24.34,0,0,1-3.61-3.77,1.48,1.48,0,0,0-2.33,1.82,28,28,0,0,0,2.91,3.2,25.47,25.47,0,0,0,4,3.1C108,127,96.16,132.17,89,122.6l-.06-.08a11.87,11.87,0,0,1-2.29-6,14.16,14.16,0,0,1,0-3C87.2,107.8,91,101.89,98,96A54.39,54.39,0,0,0,100,106.23a1.47,1.47,0,0,0,1.41,1,1.52,1.52,0,0,0,.42-.06,1.48,1.48,0,0,0,1-1.83,51.5,51.5,0,0,1-1.9-10.57A10.73,10.73,0,0,1,102,89.75c.33-.85.71-1.81,1.08-3,.43-1.37,7.36-13,19.17-14a40.15,40.15,0,0,0-2.67,14.58A1.47,1.47,0,0,0,121,88.83h0a1.48,1.48,0,0,0,1.47-1.48,37.12,37.12,0,0,1,3.19-15.26c1.42-1.29,10.43-9.13,22.15-9.79,10.7.61,19.15,7.2,21.61,9.32l.54.48c.06.13.11.27.17.41a36.32,36.32,0,0,1,3.09,13.6,1.48,1.48,0,0,0,2.95-.09,39.13,39.13,0,0,0-2.76-13.33h4.81c6.12,1.13,14.64,12.32,15.2,14.09.36,1.16.74,2.12,1.07,3a10.69,10.69,0,0,1,1.11,5,54.08,54.08,0,0,1-1.35,8.61,1.47,1.47,0,0,0,1.08,1.79,1.34,1.34,0,0,0,.35,0,1.47,1.47,0,0,0,1.43-1.12,56,56,0,0,0,1.17-6.49c7.15,6,11,11.85,11.41,17.51A14,14,0,0,1,209.74,117.07Z" transform="translate(-70.21 -17.82)"/><path class="cls-1" d="M160.13,69.36l-3.36-.13a.5.5,0,0,0-.45.73l1.57,3a.5.5,0,0,0,.86,0l1.79-2.85A.5.5,0,0,0,160.13,69.36Z" transform="translate(-70.21 -17.82)"/><path class="cls-1" d="M146.11,77.35l2.57-1.67a.59.59,0,0,0-.06-1l-2.73-1.39a.59.59,0,0,0-.85.55l.17,3.06A.59.59,0,0,0,146.11,77.35Z" transform="translate(-70.21 -17.82)"/><path class="cls-1" d="M139.66,71.59l.31-3a.58.58,0,0,0-.82-.59l-2.79,1.25a.58.58,0,0,0-.1,1L138.74,72A.58.58,0,0,0,139.66,71.59Z" transform="translate(-70.21 -17.82)"/></svg>