<svg id="Layer_1" data-name="Layer 1" xmlns="http://www.w3.org/2000/svg" viewBox="0 0 16 16"><defs><style>.cls-1{fill:#fff;}.cls-2{fill:#16223a;}.cls-3{fill:#2c72b7;}.cls-4{fill:#fdd733;}.cls-5{fill:#388d3c;}.cls-6{fill:#e42320;}</style></defs><title>favicon</title><circle class="cls-1" cx="8" cy="8" r="8"/><path class="cls-2" d="M5.88,9.15l.55-.55a.25.25,0,0,0,0-.34l-.09-.1a.26.26,0,0,0-.35,0l-.54.55L4.9,8.16a.25.25,0,0,0-.34,0l-.1.1a.25.25,0,0,0,0,.34L5,9.15l-.55.54a.26.26,0,0,0,0,.35l.1.09a.25.25,0,0,0,.34,0l.55-.55.54.55a.26.26,0,0,0,.35,0L6.43,10a.26.26,0,0,0,0-.35Z"/><circle class="cls-3" cx="11.77" cy="8.34" r="0.45"/><circle class="cls-4" cx="11.77" cy="9.95" r="0.45"/><circle class="cls-5" cx="10.96" cy="9.15" r="0.45"/><circle class="cls-6" cx="12.58" cy="9.14" r="0.45"/><path class="cls-2" d="M9.69,10.52a.39.39,0,1,1,0,.78H7.53a.39.39,0,0,1,0-.78H9.69m0-.36H7.53a.75.75,0,1,0,0,1.5H9.69a.75.75,0,1,0,0-1.5Z"/><path class="cls-2" d="M15,8.45,13.7,3.84l0,0a1.14,1.14,0,0,0-1-.71,1.07,1.07,0,0,0-1,.68l0,0L10.58,6.47H6.37L5.27,3.8l0,0a1.09,1.09,0,0,0-1-.68,1.17,1.17,0,0,0-1,.71.43.43,0,0,0,0,.05L1.19,12a.32.32,0,0,0,.06.3.34.34,0,0,0,.27.13h3a.34.34,0,0,0,.34-.34.35.35,0,0,0-.34-.35H2L3.92,4a.48.48,0,0,1,.35-.26c.16,0,.28.15.37.3L5.82,7a.35.35,0,0,0,.32.21h4.67A.34.34,0,0,0,11.13,7l1.19-2.87c.08-.15.21-.31.36-.3a.47.47,0,0,1,.36.27l1.28,4.58a.36.36,0,0,0,.34.25h.09A.34.34,0,0,0,15,8.45Z"/></svg>